<svg id="visual" viewBox="0 0 1920 1080" width="1920" height="1080" xmlns="http://www.w3.org/2000/svg" xmlns:xlink="http://www.w3.org/1999/xlink" version="1.1"><rect x="0" y="0" width="1920" height="1080" fill="#002294"></rect><path d="M0 615L240 561L480 586L720 437L960 516L1200 440L1440 627L1680 503L1920 618L1920 1081L1680 1081L1440 1081L1200 1081L960 1081L720 1081L480 1081L240 1081L0 1081Z" fill="#ff0066"></path><path d="M0 670L240 531L480 617L720 617L960 676L1200 578L1440 544L1680 589L1920 538L1920 1081L1680 1081L1440 1081L1200 1081L960 1081L720 1081L480 1081L240 1081L0 1081Z" fill="#ff4055"></path><path d="M0 762L240 683L480 643L720 687L960 700L1200 727L1440 749L1680 716L1920 658L1920 1081L1680 1081L1440 1081L1200 1081L960 1081L720 1081L480 1081L240 1081L0 1081Z" fill="#ff6147"></path><path d="M0 758L240 801L480 751L720 735L960 775L1200 754L1440 805L1680 752L1920 765L1920 1081L1680 1081L1440 1081L1200 1081L960 1081L720 1081L480 1081L240 1081L0 1081Z" fill="#ff7c3e"></path><path d="M0 875L240 942L480 893L720 840L960 890L1200 933L1440 891L1680 843L1920 901L1920 1081L1680 1081L1440 1081L1200 1081L960 1081L720 1081L480 1081L240 1081L0 1081Z" fill="#ff963a"></path><path d="M0 958L240 975L480 1016L720 919L960 969L1200 933L1440 1019L1680 974L1920 921L1920 1081L1680 1081L1440 1081L1200 1081L960 1081L720 1081L480 1081L240 1081L0 1081Z" fill="#fcaf3c"></path></svg>