<svg id="visual" viewBox="0 0 1920 1080" width="1920" height="1080" xmlns="http://www.w3.org/2000/svg" xmlns:xlink="http://www.w3.org/1999/xlink" version="1.1"><rect x="0" y="0" width="1920" height="1080" fill="#001122"></rect><path d="M0 460L21.3 467.5C42.7 475 85.3 490 128 520C170.7 550 213.3 595 256 590.5C298.7 586 341.3 532 384 543.5C426.7 555 469.3 632 512 629.3C554.7 626.7 597.3 544.3 640 516.2C682.7 488 725.3 514 768 551.7C810.7 589.3 853.3 638.7 896 668.2C938.7 697.7 981.3 707.3 1024 711.5C1066.7 715.7 1109.3 714.3 1152 674.3C1194.7 634.3 1237.3 555.7 1280 510.7C1322.7 465.7 1365.3 454.3 1408 488.8C1450.7 523.3 1493.3 603.7 1536 620.8C1578.7 638 1621.3 592 1664 581.3C1706.7 570.7 1749.3 595.3 1792 620C1834.7 644.7 1877.3 669.3 1898.7 681.7L1920 694L1920 1081L1898.7 1081C1877.3 1081 1834.7 1081 1792 1081C1749.3 1081 1706.7 1081 1664 1081C1621.3 1081 1578.7 1081 1536 1081C1493.3 1081 1450.7 1081 1408 1081C1365.3 1081 1322.7 1081 1280 1081C1237.3 1081 1194.7 1081 1152 1081C1109.3 1081 1066.7 1081 1024 1081C981.3 1081 938.7 1081 896 1081C853.3 1081 810.7 1081 768 1081C725.3 1081 682.7 1081 640 1081C597.3 1081 554.7 1081 512 1081C469.3 1081 426.7 1081 384 1081C341.3 1081 298.7 1081 256 1081C213.3 1081 170.7 1081 128 1081C85.3 1081 42.7 1081 21.3 1081L0 1081Z" fill="#ffa500"></path><path d="M0 520L21.3 544.3C42.7 568.7 85.3 617.3 128 627.7C170.7 638 213.3 610 256 609.3C298.7 608.7 341.3 635.3 384 626.7C426.7 618 469.3 574 512 547.7C554.7 521.3 597.3 512.7 640 546.2C682.7 579.7 725.3 655.3 768 685.2C810.7 715 853.3 699 896 688.3C938.7 677.7 981.3 672.3 1024 658.5C1066.7 644.7 1109.3 622.3 1152 640.3C1194.7 658.3 1237.3 716.7 1280 701C1322.7 685.3 1365.3 595.7 1408 552.3C1450.7 509 1493.3 512 1536 546.7C1578.7 581.3 1621.3 647.7 1664 662.2C1706.7 676.7 1749.3 639.3 1792 637C1834.7 634.7 1877.3 667.3 1898.7 683.7L1920 700L1920 1081L1898.7 1081C1877.3 1081 1834.7 1081 1792 1081C1749.3 1081 1706.7 1081 1664 1081C1621.3 1081 1578.7 1081 1536 1081C1493.3 1081 1450.7 1081 1408 1081C1365.3 1081 1322.7 1081 1280 1081C1237.3 1081 1194.7 1081 1152 1081C1109.3 1081 1066.7 1081 1024 1081C981.3 1081 938.7 1081 896 1081C853.3 1081 810.7 1081 768 1081C725.3 1081 682.7 1081 640 1081C597.3 1081 554.7 1081 512 1081C469.3 1081 426.7 1081 384 1081C341.3 1081 298.7 1081 256 1081C213.3 1081 170.7 1081 128 1081C85.3 1081 42.7 1081 21.3 1081L0 1081Z" fill="#ff8125"></path><path d="M0 612L21.3 618.7C42.7 625.3 85.3 638.7 128 646.7C170.7 654.7 213.3 657.3 256 677.5C298.7 697.7 341.3 735.3 384 736.8C426.7 738.3 469.3 703.7 512 690.5C554.7 677.3 597.3 685.7 640 692.5C682.7 699.3 725.3 704.7 768 712.5C810.7 720.3 853.3 730.7 896 744.3C938.7 758 981.3 775 1024 785.5C1066.7 796 1109.3 800 1152 785.5C1194.7 771 1237.3 738 1280 738C1322.7 738 1365.3 771 1408 771.3C1450.7 771.7 1493.3 739.3 1536 726.3C1578.7 713.3 1621.3 719.7 1664 728.2C1706.7 736.7 1749.3 747.3 1792 725C1834.7 702.7 1877.3 647.3 1898.7 619.7L1920 592L1920 1081L1898.7 1081C1877.3 1081 1834.7 1081 1792 1081C1749.3 1081 1706.7 1081 1664 1081C1621.3 1081 1578.7 1081 1536 1081C1493.3 1081 1450.7 1081 1408 1081C1365.3 1081 1322.7 1081 1280 1081C1237.3 1081 1194.7 1081 1152 1081C1109.3 1081 1066.7 1081 1024 1081C981.3 1081 938.7 1081 896 1081C853.3 1081 810.7 1081 768 1081C725.3 1081 682.7 1081 640 1081C597.3 1081 554.7 1081 512 1081C469.3 1081 426.7 1081 384 1081C341.3 1081 298.7 1081 256 1081C213.3 1081 170.7 1081 128 1081C85.3 1081 42.7 1081 21.3 1081L0 1081Z" fill="#ff5a41"></path><path d="M0 810L21.3 785C42.7 760 85.3 710 128 701.5C170.7 693 213.3 726 256 733.7C298.7 741.3 341.3 723.7 384 709C426.7 694.3 469.3 682.7 512 682.8C554.7 683 597.3 695 640 693.8C682.7 692.7 725.3 678.3 768 687.2C810.7 696 853.3 728 896 730C938.7 732 981.3 704 1024 721.3C1066.7 738.7 1109.3 801.3 1152 826.3C1194.7 851.3 1237.3 838.7 1280 814C1322.7 789.3 1365.3 752.7 1408 751.5C1450.7 750.3 1493.3 784.7 1536 787.2C1578.7 789.7 1621.3 760.3 1664 751.3C1706.7 742.3 1749.3 753.7 1792 751C1834.7 748.3 1877.3 731.7 1898.7 723.3L1920 715L1920 1081L1898.7 1081C1877.3 1081 1834.7 1081 1792 1081C1749.3 1081 1706.7 1081 1664 1081C1621.3 1081 1578.7 1081 1536 1081C1493.3 1081 1450.7 1081 1408 1081C1365.3 1081 1322.7 1081 1280 1081C1237.3 1081 1194.7 1081 1152 1081C1109.3 1081 1066.7 1081 1024 1081C981.3 1081 938.7 1081 896 1081C853.3 1081 810.7 1081 768 1081C725.3 1081 682.7 1081 640 1081C597.3 1081 554.7 1081 512 1081C469.3 1081 426.7 1081 384 1081C341.3 1081 298.7 1081 256 1081C213.3 1081 170.7 1081 128 1081C85.3 1081 42.7 1081 21.3 1081L0 1081Z" fill="#ff2a5c"></path><path d="M0 846L21.3 848.5C42.7 851 85.3 856 128 835.3C170.7 814.7 213.3 768.3 256 756.3C298.7 744.3 341.3 766.7 384 782C426.7 797.3 469.3 805.7 512 819.5C554.7 833.3 597.3 852.7 640 865C682.7 877.3 725.3 882.7 768 880.7C810.7 878.7 853.3 869.3 896 867.7C938.7 866 981.3 872 1024 873C1066.7 874 1109.3 870 1152 854.5C1194.7 839 1237.3 812 1280 796.2C1322.7 780.3 1365.3 775.7 1408 779.5C1450.7 783.3 1493.3 795.7 1536 797.8C1578.7 800 1621.3 792 1664 794.2C1706.7 796.3 1749.3 808.7 1792 809.7C1834.7 810.7 1877.3 800.3 1898.7 795.2L1920 790L1920 1081L1898.7 1081C1877.3 1081 1834.7 1081 1792 1081C1749.3 1081 1706.7 1081 1664 1081C1621.3 1081 1578.7 1081 1536 1081C1493.3 1081 1450.7 1081 1408 1081C1365.3 1081 1322.7 1081 1280 1081C1237.3 1081 1194.7 1081 1152 1081C1109.3 1081 1066.7 1081 1024 1081C981.3 1081 938.7 1081 896 1081C853.3 1081 810.7 1081 768 1081C725.3 1081 682.7 1081 640 1081C597.3 1081 554.7 1081 512 1081C469.3 1081 426.7 1081 384 1081C341.3 1081 298.7 1081 256 1081C213.3 1081 170.7 1081 128 1081C85.3 1081 42.7 1081 21.3 1081L0 1081Z" fill="#fd0079"></path><path d="M0 876L21.3 863.5C42.7 851 85.3 826 128 836.5C170.7 847 213.3 893 256 920.5C298.7 948 341.3 957 384 962.3C426.7 967.7 469.3 969.3 512 952C554.7 934.7 597.3 898.3 640 869.3C682.7 840.3 725.3 818.7 768 810.2C810.7 801.7 853.3 806.3 896 811.7C938.7 817 981.3 823 1024 821.8C1066.7 820.7 1109.3 812.3 1152 827.3C1194.7 842.3 1237.3 880.7 1280 887.5C1322.7 894.3 1365.3 869.7 1408 853.3C1450.7 837 1493.3 829 1536 820.5C1578.7 812 1621.3 803 1664 827C1706.7 851 1749.3 908 1792 916.3C1834.7 924.7 1877.3 884.3 1898.7 864.2L1920 844L1920 1081L1898.7 1081C1877.3 1081 1834.7 1081 1792 1081C1749.3 1081 1706.7 1081 1664 1081C1621.3 1081 1578.7 1081 1536 1081C1493.3 1081 1450.7 1081 1408 1081C1365.3 1081 1322.7 1081 1280 1081C1237.3 1081 1194.7 1081 1152 1081C1109.3 1081 1066.7 1081 1024 1081C981.3 1081 938.7 1081 896 1081C853.3 1081 810.7 1081 768 1081C725.3 1081 682.7 1081 640 1081C597.3 1081 554.7 1081 512 1081C469.3 1081 426.7 1081 384 1081C341.3 1081 298.7 1081 256 1081C213.3 1081 170.7 1081 128 1081C85.3 1081 42.7 1081 21.3 1081L0 1081Z" fill="#ee00a0"></path><path d="M0 909L21.3 920.7C42.7 932.3 85.3 955.7 128 973C170.7 990.3 213.3 1001.7 256 999.2C298.7 996.7 341.3 980.3 384 971.2C426.7 962 469.3 960 512 957.3C554.7 954.7 597.3 951.3 640 949.3C682.7 947.3 725.3 946.7 768 956.8C810.7 967 853.3 988 896 995.7C938.7 1003.3 981.3 997.7 1024 974.8C1066.7 952 1109.3 912 1152 913.2C1194.7 914.3 1237.3 956.7 1280 978.8C1322.7 1001 1365.3 1003 1408 982.7C1450.7 962.3 1493.3 919.7 1536 913.3C1578.7 907 1621.3 937 1664 959.5C1706.7 982 1749.3 997 1792 992.5C1834.7 988 1877.3 964 1898.7 952L1920 940L1920 1081L1898.7 1081C1877.3 1081 1834.7 1081 1792 1081C1749.3 1081 1706.7 1081 1664 1081C1621.3 1081 1578.7 1081 1536 1081C1493.3 1081 1450.7 1081 1408 1081C1365.3 1081 1322.7 1081 1280 1081C1237.3 1081 1194.7 1081 1152 1081C1109.3 1081 1066.7 1081 1024 1081C981.3 1081 938.7 1081 896 1081C853.3 1081 810.7 1081 768 1081C725.3 1081 682.7 1081 640 1081C597.3 1081 554.7 1081 512 1081C469.3 1081 426.7 1081 384 1081C341.3 1081 298.7 1081 256 1081C213.3 1081 170.7 1081 128 1081C85.3 1081 42.7 1081 21.3 1081L0 1081Z" fill="#c500cf"></path><path d="M0 998L21.3 1002.2C42.7 1006.3 85.3 1014.7 128 1023.2C170.7 1031.7 213.3 1040.3 256 1031.5C298.7 1022.7 341.3 996.3 384 981.7C426.7 967 469.3 964 512 966.8C554.7 969.7 597.3 978.3 640 986.3C682.7 994.3 725.3 1001.7 768 1009.5C810.7 1017.3 853.3 1025.7 896 1013.3C938.7 1001 981.3 968 1024 971C1066.7 974 1109.3 1013 1152 1016.7C1194.7 1020.3 1237.3 988.7 1280 989.5C1322.7 990.3 1365.3 1023.7 1408 1020.5C1450.7 1017.3 1493.3 977.7 1536 965.8C1578.7 954 1621.3 970 1664 981.7C1706.7 993.3 1749.3 1000.7 1792 994.5C1834.7 988.3 1877.3 968.7 1898.7 958.8L1920 949L1920 1081L1898.7 1081C1877.3 1081 1834.7 1081 1792 1081C1749.3 1081 1706.7 1081 1664 1081C1621.3 1081 1578.7 1081 1536 1081C1493.3 1081 1450.7 1081 1408 1081C1365.3 1081 1322.7 1081 1280 1081C1237.3 1081 1194.7 1081 1152 1081C1109.3 1081 1066.7 1081 1024 1081C981.3 1081 938.7 1081 896 1081C853.3 1081 810.7 1081 768 1081C725.3 1081 682.7 1081 640 1081C597.3 1081 554.7 1081 512 1081C469.3 1081 426.7 1081 384 1081C341.3 1081 298.7 1081 256 1081C213.3 1081 170.7 1081 128 1081C85.3 1081 42.7 1081 21.3 1081L0 1081Z" fill="#6600ff"></path></svg>